<?xml version="1.0" encoding="UTF-8" standalone="no"?>
<svg xmlns:rdf="http://www.w3.org/1999/02/22-rdf-syntax-ns#" xmlns="http://www.w3.org/2000/svg" height="214.728" width="241.86" version="1.1" xmlns:cc="http://creativecommons.org/ns#" xmlns:xlink="http://www.w3.org/1999/xlink" xmlns:dc="http://purl.org/dc/elements/1.1/">
 <path d="m173.963 24.1588h-26.3675c-1.26 0-2.25 0.99-2.25 2.25v2.97c0 1.26 0.99 2.24875 2.25 2.24875h6.66c1.70875 0 1.97875 0.81 1.97875 1.80125v11.7875c-5.30875 3.60125-13.0488 2.16125-15.2088 0v-29.4262c0-1.80125 1.62-3.78125 3.96-3.78125h26.9988c2.88 0 2.42875-2.69875 2.07-4.04875l-1.44-3.96h-39.2375c-9.17962 0-11.5189 8.37-11.5189 11.79v29.4262c0 7.92 6.38887 10.17 10.4389 10.17h20.3388c2.7 0 5.84875-1.98 7.55875-2.87875 1.8 2.24875 3.33 2.87875 6.3 2.87875h9.53875v-28.9775c0-1.8-1.16875-2.25-2.07-2.25zm35.2788 23.3988h4.04875c2.61 0 4.77-2.16 4.77-4.77v-26.4588c0-2.60875-2.16-4.76875-4.77-4.76875h-8.00875c-2.7 0-4.77 2.16-4.77 4.76875v26.4588c0 2.61 2.07 4.77 4.77 4.77h3.96zm0-43.5575h17.7275c6.03 0 10.89 4.86 10.89 10.89v29.6075c0 6.03-4.86 10.8888-10.89 10.8888h-34.7375c-5.93875 0-10.8888-4.85875-10.8888-10.8888v-29.6075c0-6.03 4.95-10.89 10.8888-10.89h17.01zm-95.2135 0h-3.41988c-1.35012 0-2.60937 1.26-2.60937 2.61v38.6062c-2.97025 2.34125-19.2589 4.05125-26.3688 0v-38.9662c0.1808-1.1701-0.4491-2.2501-1.979-2.2501h-26.188c-1.7099 0-2.5195 0.63-3.5097 1.8-0.9903 1.08-12.2388 17.9988-12.2388 17.9988l-11.6992-19.7988h-20.4287c-1.61963 0-1.97998 1.8-1.16993 3.33l16.7388 27.8975v18.7188c0 1.08 0.54 1.44 1.43988 1.44h16.3784c0.9005 0 1.35012-0.72 1.35012-1.62v-17.9088l19.7989-29.1575c0.449625-0.45 1.7095-0.63 1.7095 0.36v39.4175c0 2.34 2.16012 8.90875 10.8891 8.90875h31.3179c4.85937 0 12.5991-2.60875 12.5991-10.17v-38.6062c0-1.44-1.17-2.61-2.60988-2.61" fill-rule="evenodd" fill="#231f20"/>
 <path d="m121.071 210.728c-0.0474 0-0.0943-0.002-0.14112-0.002-0.0474 0-0.0937 0.002-0.14113 0.002v-0.003c-32.1699-0.0971-60.0528-27.4174-59.523-62.9726 0.3585-38.9746 26.8604-66.2682 58.5778-65.967 0.36613 0.0063 0.7265 0.01 1.08638 0.01 0.35987 0 0.71975-0.0037 1.08637-0.01 31.7162-0.30125 58.2188 26.9924 58.5775 65.967 0.53 35.5552-27.3538 62.8755-59.5228 62.9726v0.003zm0-118.971v0.0012c-0.0474-0.0012-0.0943 0-0.14112 0-0.0474 0-0.0937-0.0012-0.14113 0v-0.0012c-13.3315-0.0325-26.8105 5.13625-35.0054 14.8229 14.1744 10.3414 31.8985 20.7305 33.5845 39.2696v51.1996c0.006 0.94188 0.76125 1.45513 1.5625 1.53038 0.80175-0.0753 1.55512-0.5885 1.5615-1.53038v-51.1996c1.686-18.5391 19.4106-28.9282 33.5844-39.2696-8.195-9.68663-21.6738-14.8554-35.0052-14.8229zm16.0878 55.8102v48.6342c-0.1 2.67625 3.11125 0.59425 6.29-1.15237 23.3188-13.3344 35.4838-40.8999 23.4538-72.538-2.0375-5.66563-10.7625 1.38862-14.1112 3.41837-7.40125 6.17388-14.9925 11.1588-15.6325 21.6378zm-32.4574 0v48.9936c0.0991 2.67624-3.11187 0.23487-6.2905-1.51175-23.3184-13.3344-35.484-40.8999-23.4541-72.538 2.0385-5.66563 10.7631 1.38862 14.1118 3.41837 7.40088 6.17388 14.9928 11.1588 15.6329 21.6378" fill-rule="evenodd" fill="#231f20"/>
</svg>
